<svg xmlns="http://www.w3.org/2000/svg" viewBox="0 0 88 77" fill="none">
  <g transform="translate(0,2.807)" fill="#000000">
    <path transform="translate(0,0)" d="M 22.414 64.276 L 22.414 9.916 C 22.414 2.321 25.066 0 25.066 0 L 0 0 C 0 0 2.652 2.321 2.652 9.916 L 2.652 64.276 C 2.652 71.851 0 74.203 0 74.203 L 25.066 74.203 C 25.066 74.203 22.414 71.856 22.414 64.276 Z"></path>
    <path transform="translate(25.308,0)" d="M 39.582 15.588 C 39.582 27.125 28.771 31.056 19.21 31.171 L 0 31.171 C 8.81 30.241 19.793 25.358 19.793 15.583 C 19.793 2.42 10.092 0.57 1.099 0 L 19.272 0 C 28.943 0 39.587 4.093 39.587 15.588 L 39.582 15.588 Z"></path>
    <path transform="translate(25.363,32.633)" d="M 42.499 20.789 C 42.499 34.966 28.672 41.427 19.106 41.574 L 1.037 41.574 C 12.629 40.586 22.732 34.789 22.732 20.784 C 22.732 5.964 8.795 1.176 0 0 L 19.028 0 C 28.698 0 42.499 6.639 42.499 20.789 Z"></path>
  </g>
  <path transform="translate(71.621,0.001)" fill="#5D00FF" d="M 15.667 5.201 C 14.016 0.935 9.175 -1.146 4.945 0.642 C 1.063 2.284 -0.948 6.821 0.438 10.81 C 1.553 14.024 4.45 16.063 7.602 16.262 C 7.92 16.283 8.123 16.487 7.92 16.774 L 4.611 21.087 C 4.424 21.578 4.976 21.897 5.403 21.594 C 8.066 19.728 10.78 18.008 13.099 15.797 C 14.813 14.16 15.422 13.01 16.074 11.217 C 16.636 9.247 16.402 7.088 15.673 5.195 L 15.667 5.201 Z"></path>
</svg>